nColumns=19
nRows=68
DataType=double
version=3
OpenSimVersion=4.1
endheader
time	ground_force_calcn_r_vx	ground_force_calcn_r_vy	ground_force_calcn_r_vz	ground_force_calcn_r_px	ground_force_calcn_r_py	ground_force_calcn_r_pz	ground_force_calcn_r_mx	ground_force_calcn_r_my	ground_force_calcn_r_mz	ground_force_calcn_l_vx	ground_force_calcn_l_vy	ground_force_calcn_l_vz	ground_force_calcn_l_px	ground_force_calcn_l_py	ground_force_calcn_l_pz	ground_force_calcn_l_mx	ground_force_calcn_l_my	ground_force_calcn_l_mz
0	0	0	0	0	0	0	0	0	0	0	0	0	0	0	0	0	0	0
0.005	0	0	0	0	0	0	0	0	0	0	0	0	0	0	0	0	0	0
0.01	0	0	0	0	0	0	0	0	0	0	0	0	0	0	0	0	0	0
0.015	0	0	0	0	0	0	0	0	0	0	0	0	0	0	0	0	0	0
0.02	0	0	0	0	0	0	0	0	0	0	0	0	0	0	0	0	0	0
0.025	0	0	0	0	0	0	0	0	0	0	0	0	0	0	0	0	0	0
0.03	0	0	0	0	0	0	0	0	0	0	0	0	0	0	0	0	0	0
0.035	0	0	0	0	0	0	0	0	0	0	0	0	0	0	0	0	0	0
0.04	0	0	0	0	0	0	0	0	0	0	0	0	0	0	0	0	0	0
0.045	0	0	0	0	0	0	0	0	0	0	0	0	0	0	0	0	0	0
0.05	0	0	0	0	0	0	0	0	0	0	0	0	0	0	0	0	0	0
0.055	0	0	0	0	0	0	0	0	0	0	0	0	0	0	0	0	0	0
0.06	0	0	0	0	0	0	0	0	0	0	0	0	0	0	0	0	0	0
0.065	0	0	0	0	0	0	0	0	0	0	0	0	0	0	0	0	0	0
0.07	0	0	0	0	0	0	0	0	0	0	0	0	0	0	0	0	0	0
0.075	0	0	0	0	0	0	0	0	0	0	0	0	0	0	0	0	0	0
0.08	0	0	0	0	0	0	0	0	0	0	0	0	0	0	0	0	0	0
0.085	0	0	0	0	0	0	0	0	0	0	0	0	0	0	0	0	0	0
0.09	0	0	0	0	0	0	0	0	0	0	0	0	0	0	0	0	0	0
0.095	0	0	0	0	0	0	0	0	0	0	0	0	0	0	0	0	0	0
0.1	0	0	0	0	0	0	0	0	0	0	0	0	0	0	0	0	0	0
0.105	0	0	0	0	0	0	0	0	0	0	0	0	0	0	0	0	0	0
0.11	0	0	0	0	0	0	0	0	0	0	0	0	0	0	0	0	0	0
0.115	0	0	0	0	0	0	0	0	0	0	0	0	0	0	0	0	0	0
0.12	0	0	0	0	0	0	0	0	0	0	0	0	0	0	0	0	0	0
0.125	0	0	0	0	0	0	0	0	0	0	0	0	0	0	0	0	0	0
0.13	0	0	0	0	0	0	0	0	0	0	0	0	0	0	0	0	0	0
0.135	0	0	0	0	0	0	0	0	0	0	0	0	0	0	0	0	0	0
0.14	0	0	0	0	0	0	0	0	0	-30.7505	50.6959	-3.27965	1.26454	0	-0.362595	1.7661	-2.91163	0.188361
0.145	0	0	0	0	0	0	0	0	0	-78.7374	190.567	12.4203	1.11207	0	-0.426511	2.48315	-6.00994	-0.391701
0.15	0	0	0	0	0	0	0	0	0	-141.73	413.302	50.373	1.07383	0	-0.430656	2.40566	-7.01521	-0.855008
0.155	0	0	0	0	0	0	0	0	0	-201.39	701.768	114.612	1.07478	0	-0.419408	0.99891	-3.48082	-0.568485
0.16	0	0	0	0	0	0	0	0	0	-237.28	1007.06	190.134	1.07444	0	-0.408003	-0.8766	3.72046	0.702427
0.165	0	0	0	0	0	0	0	0	0	-247.987	1287.68	243.366	1.07344	0	-0.397075	-1.23972	6.43726	1.21662
0.17	0	0	0	0	0	0	0	0	0	-263.912	1522.72	245.551	1.067	0	-0.38774	0.449168	-2.59162	-0.41792
0.175	0	0	0	0	0	0	0	0	0	-307.68	1700.59	189.056	1.05591	0	-0.381451	2.8436	-15.7169	-1.74727
0.18	0	0	0	0	0	0	0	0	0	-366.695	1822.12	96.0834	1.04815	0	-0.378458	3.80656	-18.9149	-0.997415
0.185	0	0	0	0	0	0	0	0	0	-425.288	1909.85	4.51728	1.04423	0	-0.377892	2.49346	-11.1975	-0.0264848
0.19	0	0	0	0	0	0	0	0	0	-474.041	1988.76	-54.4731	1.03848	0	-0.37797	0.244568	-1.02604	0.0281038
0.195	0	0	0	0	0	0	0	0	0	-497.695	2073.06	-68.0329	1.02892	0	-0.37736	-0.67115	2.79555	-0.0917435
0.2	0	0	0	0	0	0	0	0	0	-491.18	2165.59	-39.3765	1.01392	0	-0.376373	-0.0604103	0.266346	-0.00484292
0.205	0	0	0	0	0	0	0	0	0	-462.412	2255.11	15.6917	0.992502	0	-0.376571	0.111053	-0.541587	-0.00376853
0.21	0	0	0	0	0	0	0	0	0	-418.273	2324.55	76.8001	0.96823	0	-0.378214	-0.590932	3.2841	0.108503
0.215	0	0	0	0	0	0	0	0	0	-368.99	2370.08	127.026	0.944553	0	-0.380205	-1.20073	7.71246	0.413355
0.22	0	0	0	0	0	0	0	0	0	-324.525	2399.56	158.264	0.922973	0	-0.381462	-1.2135	8.97269	0.591795
0.225	0	0	0	0	0	0	0	0	0	-284.709	2418.85	175.088	0.903751	0	-0.381696	-0.759966	6.45656	0.467358
0.23	0	0	0	0	0	0	0	0	0	-246.756	2429.53	186.229	0.885334	0	-0.381301	-0.253202	2.49298	0.191093
0.235	0	0	0	0	0	0	0	0	0	-208.676	2430.68	194.101	0.865987	0	-0.380706	0.144337	-1.68125	-0.134255
0.24	0	0	0	0	0	0	0	0	0	-165.168	2423.16	192.682	0.845717	0	-0.380083	0.498428	-7.31238	-0.581457
0.245	0	0	0	0	0	0	0	0	0	-112.722	2409.47	173.455	0.825417	0	-0.379523	0.607315	-12.9816	-0.934531
0.25	0	0	0	0	0	0	0	0	0	-52.8179	2386.94	132.5	0.805192	0	-0.379336	0.258384	-11.6768	-0.648188
0.255	0	0	0	0	0	0	0	0	0	11.5215	2348.1	77.8774	0.784413	0	-0.379488	0.00519192	1.05812	0.0350937
0.26	0	0	0	0	0	0	0	0	0	76.8038	2291.55	26.4945	0.763816	0	-0.379169	0.693293	20.6854	0.239161
0.265	0	0	0	0	0	0	0	0	0	136.953	2222.8	-5.27909	0.74567	0	-0.377433	2.19292	35.592	-0.0845301
0.27	0	0	0	0	0	0	0	0	0	184.898	2141.88	-9.15801	0.730945	0	-0.374567	3.01277	34.9004	-0.149223
0.275	0	0	0	0	0	0	0	0	0	217.968	2039.74	13.1637	0.717781	0	-0.371864	1.85976	17.4036	0.112317
0.28	0	0	0	0	0	0	0	0	0	240.83	1910.32	51.5467	0.703903	0	-0.370337	-1.07876	-8.55697	-0.230895
0.285	0	0	0	0	0	0	0	0	0	260.324	1757.83	91.8967	0.689425	0	-0.370035	-4.95415	-33.4528	-1.74886
0.29	0	0	0	0	0	0	0	0	0	278.74	1589.71	114.11	0.674701	0	-0.370702	-8.50267	-48.4925	-3.4808
0.295	0	0	0	0	0	0	0	0	0	295.166	1408.4	98.7909	0.656463	0	-0.371796	-9.626	-45.9309	-3.22178
0.3	0	0	0	0	0	0	0	0	0	310.949	1214.1	41.6726	0.630099	0	-0.371919	-5.73825	-22.4051	-0.769027
0.305	0	0	0	0	0	0	0	0	0	326.586	1009.11	-39.0125	0.593543	0	-0.367292	5.47075	16.904	-0.653511
0.31	0	0	0	0	0	0	0	0	0	336.896	799.078	-110.176	0.549391	0	-0.351965	23.1789	54.9777	-7.58027
0.315	0	0	0	0	0	0	0	0	0	332.481	590.248	-141.144	0.496461	0	-0.323229	39.3991	69.9445	-16.7256
0.32	0	0	0	0	0	0	0	0	0	305.169	392.098	-120.73	0.421943	0	-0.289951	41.9486	53.8979	-16.5955
0.325	0	0	0	0	0	0	0	0	0	254.436	220.199	-62.1349	0.315739	0	-0.292783	23.1247	20.0131	-5.6472
0.33	0	0	0	0	0	0	0	0	0	188.173	94.0897	1.91404	0.439855	0	-0.419609	-4.29379	-2.14697	-0.0436751
0.335	0	0	0	0	0	0	0	0	0	119.456	18.4124	37.634	0.543982	0	-0.709522	-6.20565	-0.956512	-1.95506
